<svg xmlns="http://www.w3.org/2000/svg" viewBox="0 0 307 454" fill="none" fill-rule="evenodd">
  <path stroke="#1800DF" d="M306 127.2813V89.2946L154 1.2813 2 89.2946v37.9867"/>
  <path stroke="#1800DF" d="M291 142.2813l-1.7459-31.6563-134.743-73.3437L19.757 110.625 18 142.2813"/>
  <path stroke="#1800DF" d="M274 156.2813l-3.4917-25.6264-117.4856-59.3736-117.51 59.3736L32 156.2813"/>
  <path stroke="#1800DF" d="M259 171.2813l-5.2592-18.9939-100.7069-44.0061-100.7414 44.0061L47 171.2813"/>
  <path stroke="#1800DF" d="M244 185.2813l-7.013-12.3613-83.4409-28.6387L70.0575 172.92 63 185.2813"/>
  <path stroke="#1800DF" d="M229 200.2813l-8.7691-6.3314-66.1742-14.6686-66.2342 14.6686L79 200.2813"/>
  <path stroke="#FF776A" d="M212 214.7813H94"/>
  <path stroke="#1800DF" d="M1 324.2813v40.5761l152 88.4239 152-88.4239v-40.5761"/>
  <path stroke="#1800DF" d="M18 309.2813l1.8378 33.9711 134.65 74.0289 134.6645-74.0289L291 309.2813"/>
  <path stroke="#1800DF" d="M34 296.2813l3.6742 27.0512 117.3009 58.9488 117.3308-58.9488L276 296.2813"/>
  <path stroke="#1800DF" d="M48 282.2813l5.5347 20.1306 100.4281 43.8694 100.4725-43.8694L260 282.2813"/>
  <path stroke="#1800DF" d="M64 268.2813l7.3807 13.2111 83.0699 28.7889 83.1287-28.7889L245 268.2813"/>
  <path stroke="#1800DF" d="M80 253.2813l9.2281 6.9195 65.7108 15.0805 65.783-15.0805L230 253.2813"/>
  <path stroke="#FF776A" d="M96 239.7813h118"/>
</svg>